<svg xmlns="http://www.w3.org/2000/svg" width="81" height="100"><path fill="#f44336" d="M76.528 90.932A15.7 15.7 0 0162.308 100H18.272a15.691 15.691 0 01-14.216-9.068 39.804 39.804 0 015.752-42.364A29.085 29.085 0 014.44 31.816C4.44 14.272 20.548 0 40.308 0s35.848 14.272 35.848 31.816a29.066 29.066 0 01-5.372 16.752 39.796 39.796 0 015.744 42.364zm-2.752-1.268a36.8 36.8 0 00-6.072-40 1.52 1.52 0 01-.08-1.928 26.2 26.2 0 005.484-15.92c0-15.872-14.704-28.8-32.808-28.8S7.468 15.944 7.468 31.816a26.196 26.196 0 005.484 15.916 1.516 1.516 0 01-.08 1.928 36.799 36.799 0 00-6.064 40 12.65 12.65 0 0011.464 7.312h44.036c4.923 0 9.401-2.851 11.484-7.312z"/><path fill="#f44336" d="M64.056 31.816a17.248 17.248 0 01-3.36 10.076 1.503 1.503 0 01-1.232.632 1.48 1.48 0 01-.756-.204 37.271 37.271 0 00-36.8 0c-.676.4-1.547.214-2-.428a17.232 17.232 0 01-3.34-10.076c0-10.86 10.652-19.696 23.74-19.696 13.076 0 23.728 8.836 23.748 19.696zm-5.096 7.188a1.672 1.672 0 01-.006-.003.326.326 0 00-.002.003zm-.006-.003a13.999 13.999 0 002.058-7.197c0-9.188-9.284-16.664-20.704-16.664S19.6 22.604 19.6 31.804c.016 2.541.724 5.03 2.048 7.2a39.673 39.673 0 0137.306-.003zm-6.81 13.643a1.516 1.516 0 00-.62 2.052c.092.172 9.06 17.364-1.724 34.852a1.516 1.516 0 001.296 2.308 1.504 1.504 0 001.292-.72c11.684-18.952 2.224-37.108 1.816-37.872a1.517 1.517 0 00-2.06-.62z"/></svg>