<svg xmlns="http://www.w3.org/2000/svg" width="81" height="100"><path fill="#f44336" d="M49.581 89.76h-17.81a1.991 1.991 0 01-1.99-1.992c0-7.421-3.034-13.906-9.555-20.417-11.295-11.294-11.295-29.606 0-40.9 11.295-11.295 29.607-11.295 40.901 0 11.295 11.294 11.295 29.606 0 40.9-6.509 6.51-9.555 12.996-9.555 20.418a1.99 1.99 0 01-1.99 1.99zm-15.874-4.01h13.936a28.953 28.953 0 013.185-11.363c1.748-3.384 4.184-6.617 7.457-9.886 9.728-9.73 9.728-25.503 0-35.231-9.73-9.729-25.503-9.729-35.232 0-9.728 9.728-9.729 25.502 0 35.23 3.268 3.27 5.71 6.503 7.453 9.887a28.831 28.831 0 013.201 11.363z"/><path fill="#f44336" d="M53.093 61.308a1.991 1.991 0 01-1.417-3.424c6.067-6.078 6.067-15.92 0-21.998a2.004 2.004 0 112.835-2.835c7.628 7.645 7.628 20.022 0 27.667-.375.378-.886.59-1.418.59zM49.581 100h-17.81a2.004 2.004 0 010-4.01h17.81a2.004 2.004 0 110 4.01zm-8.906-86.49a1.99 1.99 0 01-1.99-1.991V2.692a2.005 2.005 0 114.009 0v8.81a1.99 1.99 0 01-2.02 2.008zm-17.686 4.738a1.99 1.99 0 01-1.74-1.004L16.841 9.62a1.998 1.998 0 013.464-1.991l4.408 7.632a1.99 1.99 0 01-1.732 3.007zM10.033 31.2a1.99 1.99 0 01-1-.271l-7.632-4.404a2.003 2.003 0 011.991-3.476l7.645 4.408a1.991 1.991 0 01-1.004 3.742zm48.332-12.952a2.028 2.028 0 01-1-.267 1.992 1.992 0 01-.732-2.74l4.403-7.612a1.998 1.998 0 013.464 1.99l-4.38 7.625a1.991 1.991 0 01-1.755 1.004zM71.32 31.2a1.99 1.99 0 01-1.007-3.743l7.633-4.408a2.003 2.003 0 111.99 3.476l-7.632 4.404a1.998 1.998 0 01-.984.27z"/></svg>