<svg xmlns="http://www.w3.org/2000/svg" width="101" height="100"><path fill="#f44336" d="M96.752 39.107a47.85 47.85 0 01-57.496 57.517 61.73 61.73 0 01-2.926 1.012C31.351 99.215 26.71 100 22.516 100c-6.715 0-12.285-2.009-16.247-5.975C2.644 90.405.653 85.479.347 79.388c-.298-5.508.826-11.677 3.306-18.351A47.85 47.85 0 0161.165 3.504C67.839 1.024 74.008-.08 79.516.198c6.091.306 11.017 2.297 14.64 5.922 6.439 6.438 7.74 17.115 3.608 30.058a65.982 65.982 0 01-1.012 2.93zM67.835 5.603l.983.413A47.967 47.967 0 0194.26 31.462c.149.323.281.65.413.976C97.41 22.17 96.248 13.896 91.322 8.97c-4.93-4.917-13.306-6.079-23.487-3.368zm-17.633.686C28.251 6.36 9.742 22.67 6.91 44.438 4.076 66.206 17.793 86.709 38.996 92.397c10.723-4.211 21.872-11.818 31.797-21.736 9.926-9.917 17.525-21.074 21.752-31.793-5.107-19.19-22.47-32.553-42.326-32.579zM22.496 95.975a39.33 39.33 0 0010.103-1.45l-.98-.413A48.005 48.005 0 016.175 68.669c-.15-.327-.282-.657-.414-.983C3.053 77.872 4.202 86.248 9.115 91.16c3.187 3.186 7.773 4.797 13.397 4.797zm71.487-45.901a51.69 51.69 0 00-.173-4.099c-4.628 9.438-11.558 18.97-20.15 27.545-8.59 8.575-18.102 15.521-27.54 20.145 1.355.13 2.721.194 4.099.194 24.176-.027 43.765-19.625 43.78-43.801z"/><path fill="#f44336" d="M33.47 28.099c.006-5.862 4.76-10.61 10.62-10.607 5.862.002 10.612 4.754 10.612 10.615 0 5.861-4.75 10.614-10.612 10.616-5.865-.002-10.62-4.758-10.62-10.624zm10.62-6.57a6.59 6.59 0 00-6.582 6.57 6.583 6.583 0 106.582-6.57zM33.611 66.942a6.582 6.582 0 116.082-4.064 6.583 6.583 0 01-6.082 4.064zm0-9.145a2.554 2.554 0 00-2.554 2.567 2.554 2.554 0 102.554-2.554zM70.685 53.5a8.744 8.744 0 01-8.73-8.732 8.731 8.731 0 118.73 8.732zm0-13.418a4.706 4.706 0 00-4.698 4.686 4.703 4.703 0 104.698-4.702z"/></svg>