<svg xmlns="http://www.w3.org/2000/svg" width="88" height="100"><path fill="#f44336" d="M49.644 56.628a5.534 5.534 0 11-6.99-6.086V38.789a1.51 1.51 0 113.02 0v11.753a5.534 5.534 0 013.97 6.086zm-5.48 1.722a2.513 2.513 0 100-5.027 2.513 2.513 0 000 5.027z"/><path fill="#f44336" d="M75.852 55.836a31.694 31.694 0 11-31.689-31.689c17.493.02 31.67 14.196 31.69 31.69zM69.69 68.832a28.397 28.397 0 003.072-11.486h-4.45a1.51 1.51 0 010-3.02h4.453a28.422 28.422 0 00-3.07-11.485l-3.861 2.23a1.51 1.51 0 11-1.51-2.613l3.864-2.231a28.983 28.983 0 00-8.414-8.427l-2.227 3.865a1.511 1.511 0 11-2.618-1.51l2.231-3.86a28.405 28.405 0 00-11.486-3.056v4.45a1.51 1.51 0 01-3.02 0v-4.466a28.424 28.424 0 00-11.486 3.071l2.231 3.877a1.508 1.508 0 01-.554 2.064 1.53 1.53 0 01-.753.203 1.511 1.511 0 01-1.306-.757l-2.232-3.865a28.968 28.968 0 00-8.41 8.41l3.865 2.232a1.51 1.51 0 01-1.51 2.613l-3.86-2.23a28.484 28.484 0 00-3.073 11.485h4.45a1.51 1.51 0 010 3.02h-4.45a28.462 28.462 0 003.072 11.486l3.86-2.23a1.51 1.51 0 011.511 2.617l-3.865 2.227a28.93 28.93 0 008.41 8.41l2.232-3.864a1.51 1.51 0 012.613 1.51l-2.23 3.86a28.417 28.417 0 0011.485 3.072v-4.45a1.51 1.51 0 113.02 0v4.45a28.398 28.398 0 0011.486-3.072l-2.231-3.86a1.512 1.512 0 012.618-1.51l2.227 3.865a28.938 28.938 0 008.41-8.41l-3.864-2.228a1.51 1.51 0 111.51-2.618z"/><path fill="#f44336" d="M86.504 66.944c-5.037 19.258-22.435 32.691-42.34 32.691-19.907 0-37.305-13.433-42.342-32.691-5.036-19.258 3.557-39.49 20.915-49.235l-4.896-9.47a1.508 1.508 0 012.677-1.387l4.908 9.498a43.433 43.433 0 0117.227-4.239V3.02h-6.538a1.51 1.51 0 110-3.02h16.096a1.51 1.51 0 110 3.02h-6.538v9.107A43.423 43.423 0 0162.9 16.35l4.909-9.498a1.51 1.51 0 112.68 1.387l-4.9 9.47c17.358 9.745 25.952 29.977 20.915 49.235zm-42.34 29.642c22.497-.02 40.732-18.251 40.756-40.75-.005-22.503-18.249-40.742-40.751-40.74-22.504.001-40.745 18.243-40.747 40.746-.001 22.503 18.238 40.747 40.741 40.751z"/></svg>