<svg xmlns="http://www.w3.org/2000/svg" width="37" height="37"><defs><linearGradient id="a" x1="29.5" x2="8.23" y1=".41" y2="36.86" gradientUnits="userSpaceOnUse"><stop offset="0" stop-color="#ffc107"/><stop offset="1" stop-color="#fff"/></linearGradient><linearGradient id="b" x1=".64" x2="36.64" y1="8" y2="29.27" gradientUnits="userSpaceOnUse"><stop offset="0" stop-color="#ffc107"/><stop offset="1" stop-color="#fff"/></linearGradient></defs><g opacity=".6"><path fill="url(#a)" d="M9.732 36.456l-1.731-1a2.997 2.997 0 01-1.099-4.098l17-29.445A2.998 2.998 0 0128 .815l1.732 1a2.997 2.997 0 011.098 4.098l-17 29.445a2.997 2.997 0 01-4.098 1.098z" opacity=".6"/><path fill="url(#b)" d="M36.687 27.77l-1 1.732a2.996 2.996 0 01-4.098 1.097l-29.445-17a2.997 2.997 0 01-1.098-4.097l1-1.732a2.997 2.997 0 014.098-1.1l29.445 17a2.997 2.997 0 011.098 4.099z" opacity=".6"/></g></svg>